<svg xmlns="http://www.w3.org/2000/svg" viewBox="0 0 32 32" fill="none" role="img" aria-label="NachtBlau Crew Eule">
  <defs>
    <linearGradient id="bg" x1="4" y1="2" x2="28" y2="30">
      <stop offset="0%" stop-color="#3a6cb0"/>
      <stop offset="100%" stop-color="#070f1c"/>
    </linearGradient>
    <linearGradient id="owl" x1="16" y1="10" x2="16" y2="24">
      <stop offset="0%" stop-color="#8eb4dc"/>
      <stop offset="100%" stop-color="#1c3a68"/>
    </linearGradient>
  </defs>
  <path d="M16 1 L29 6.2 V16.2 C29 23.6 23.4 28.2 16 31 C8.6 28.2 3 23.6 3 16.2 V6.2 Z" fill="url(#bg)"/>
  <path d="M16 2.6 L27.2 7.2 V16 C27.2 22.4 22.6 26.4 16 28.8 C9.4 26.4 4.8 22.4 4.8 16 V7.2 Z" stroke="#bfe6ff" stroke-width="1.15" fill="none"/>
  <path d="M26 5.2h1.3v1.3H26zM27.6 5.2h1.3v1.3h-1.3zM26 6.8h1.3v1.3H26z" fill="#d4f0ff"/>
  <ellipse cx="16" cy="17.4" rx="7.6" ry="7.2" fill="url(#owl)"/>
  <ellipse cx="16" cy="17.8" rx="5.4" ry="4.3" fill="#d7ebff" opacity="0.5"/>
  <path d="M10.2 15.4 C9.2 13.2 9.6 11.2 11.6 10.2 C12.2 12.2 13 14 13.8 15.2 Z" fill="#7ea4cc"/>
  <path d="M21.8 15.4 C22.8 13.2 22.4 11.2 20.4 10.2 C19.8 12.2 19 14 18.2 15.2 Z" fill="#7ea4cc"/>
  <path d="M9.8 16.2 C11.4 14.2 20.6 14.2 22.2 16.2" stroke="#e7f7ff" stroke-width="0.9" stroke-linecap="round"/>
  <circle cx="9.2" cy="16.2" r="1.7" fill="#0b1730" stroke="#bfe6ff" stroke-width="0.45"/>
  <circle cx="22.8" cy="16.2" r="1.7" fill="#0b1730" stroke="#bfe6ff" stroke-width="0.45"/>
  <circle cx="12.7" cy="16.7" r="2.7" fill="#f7fbff"/>
  <circle cx="19.3" cy="16.7" r="2.7" fill="#f7fbff"/>
  <circle cx="12.9" cy="17.1" r="1.45" fill="#10203c"/>
  <circle cx="19.5" cy="17.1" r="1.45" fill="#10203c"/>
  <circle cx="13.5" cy="16.2" r="0.55" fill="#fff"/>
  <circle cx="20.1" cy="16.2" r="0.55" fill="#fff"/>
  <path d="M16 18.7 C15.2 18.9 14.6 19.8 16 20.8 C17.4 19.8 16.8 18.9 16 18.7 Z" fill="#c9ecff"/>
  <ellipse cx="10.6" cy="18.6" rx="1.15" ry="0.7" fill="#ff8fb0" opacity="0.8"/>
  <ellipse cx="21.4" cy="18.6" rx="1.15" ry="0.7" fill="#ff8fb0" opacity="0.8"/>
</svg>
