<svg xmlns="http://www.w3.org/2000/svg" viewBox="0 0 48 48" fill="none" role="img" aria-label="NachtBlau">
  <defs>
    <linearGradient id="nb-bg" x1="24" y1="4" x2="24" y2="44" gradientUnits="userSpaceOnUse">
      <stop stop-color="#0c1428"/>
      <stop offset="1" stop-color="#050818"/>
    </linearGradient>
    <linearGradient id="nb-blau" x1="30" y1="10" x2="36" y2="28" gradientUnits="userSpaceOnUse">
      <stop stop-color="#8ef4ff"/>
      <stop offset="1" stop-color="#3d8fb8"/>
    </linearGradient>
    <radialGradient id="nb-glow" cx="0" cy="0" r="1" gradientUnits="userSpaceOnUse" gradientTransform="translate(31 17) rotate(90) scale(14)">
      <stop stop-color="#5eeaff" stop-opacity="0.45"/>
      <stop offset="1" stop-color="#5eeaff" stop-opacity="0"/>
    </radialGradient>
    <filter id="nb-soft" x="-30%" y="-30%" width="160%" height="160%">
      <feGaussianBlur stdDeviation="1.2" result="b"/>
      <feMerge><feMergeNode in="b"/><feMergeNode in="SourceGraphic"/></feMerge>
    </filter>
  </defs>
  <rect x="1" y="1" width="46" height="46" rx="11" fill="url(#nb-bg)" stroke="#2a4060" stroke-width="1.25"/>
  <circle cx="31" cy="17" r="12" fill="url(#nb-glow)"/>
  <circle cx="13" cy="12" r="0.9" fill="#8ef4ff" opacity="0.7"/>
  <circle cx="20" cy="8" r="0.55" fill="#c8e8ff" opacity="0.5"/>
  <circle cx="36" cy="11" r="0.65" fill="#c8e8ff" opacity="0.45"/>
  <path d="M34.5 17a7.5 7.5 0 1 0-15 0 7.5 7.5 0 0 0 15 0Z" fill="#07101f"/>
  <path d="M27.5 10.2a6.8 6.8 0 0 1 0 13.6 5.8 5.8 0 1 0 0-13.6Z" fill="url(#nb-blau)" filter="url(#nb-soft)"/>
  <path d="M8 33.5c6.5-5.5 17-5.5 24 0" stroke="#5eeaff" stroke-width="1.75" stroke-linecap="round" opacity="0.9"/>
  <path d="M8 36c6.5-4 17-4 24 0" stroke="#2a6090" stroke-width="1" stroke-linecap="round" opacity="0.55"/>
</svg>
